<svg viewBox="0 0 100 100" xmlns="http://www.w3.org/2000/svg"><defs>
  <linearGradient id="cr3bg" x1="0" y1="0" x2="0" y2="100" gradientUnits="userSpaceOnUse"><stop offset="0" stop-color="#14304f"></stop><stop offset="1" stop-color="#0a1322"></stop></linearGradient>
  <linearGradient id="cr3rim" x1="0" y1="0" x2="0" y2="100" gradientUnits="userSpaceOnUse"><stop offset="0" stop-color="#ffe6ab"></stop><stop offset="1" stop-color="#c79a4c"></stop></linearGradient>
  <linearGradient id="cr3gold" x1="0" y1="-13" x2="0" y2="13" gradientUnits="userSpaceOnUse"><stop offset="0" stop-color="#ffe9b8"></stop><stop offset="0.5" stop-color="#e3b766"></stop><stop offset="1" stop-color="#b8852f"></stop></linearGradient><clipPath id="cr3clip"><path d="M50,3 L91,24 L91,62 Q91,80 50,97 Q9,80 9,62 L9,24 Z"></path></clipPath></defs>
  <path d="M50,1 L93,23 L93,62 Q93,82 50,99 Q7,82 7,62 L7,23 Z" fill="url(#cr3rim)"></path>
  <path d="M50,5 L89,25 L89,61 Q89,78 50,94 Q11,78 11,61 L11,25 Z" fill="url(#cr3bg)"></path>
  <g clip-path="url(#cr3clip)">
  <g transform="translate(2,60) scale(0.29) rotate(-8 30 52)"><g><defs>
    <linearGradient id="c4body" x1="0" y1="20" x2="0" y2="86" gradientUnits="userSpaceOnUse"><stop offset="0" stop-color="#7ec85a"></stop><stop offset="0.5" stop-color="#54a83f"></stop><stop offset="1" stop-color="#2f7d34"></stop></linearGradient>
    <linearGradient id="c4snout" x1="0" y1="30" x2="0" y2="66" gradientUnits="userSpaceOnUse"><stop offset="0" stop-color="#86d063"></stop><stop offset="1" stop-color="#3f9438"></stop></linearGradient>
    <radialGradient id="c4mouth" cx="60" cy="56" r="26" gradientUnits="userSpaceOnUse"><stop offset="0" stop-color="#b23a2a"></stop><stop offset="1" stop-color="#6e1f16"></stop></radialGradient></defs>
    <path d="M16,62 Q10,44 24,38 Q22,56 30,64 Z" fill="#2f7d34"></path>
    <path d="M30,55 Q40,50 58,54 Q74,57 86,54 Q90,60 84,65 Q66,72 46,70 Q32,68 28,62 Z" fill="url(#c4snout)" stroke="#256b2a" stroke-width="1.4" stroke-linejoin="round"></path>
    <path d="M33,53 Q52,52 72,53 Q80,54 84,56 Q70,64 50,63 Q38,62 32,57 Z" fill="url(#c4mouth)"></path>
    <g fill="#f6fff0"><path d="M40,57 l3,-6 l3,6 Z"></path><path d="M50,58 l3.2,-7 l3.2,7 Z"></path><path d="M61,57.5 l2.8,-6 l2.8,6 Z"></path><path d="M71,56 l2.4,-5 l2.4,5 Z"></path></g>
    
    <g transform="rotate(0 28 51)">
    <path d="M18,46 Q14,30 30,27 Q40,25 46,30 Q60,24 78,34 Q90,40 90,47 Q90,51 84,51 Q70,49 54,50 Q40,51 33,52 Q24,53 20,52 Q17,50 18,46 Z" fill="url(#c4body)" stroke="#256b2a" stroke-width="1.6" stroke-linejoin="round"></path>
    <ellipse cx="84" cy="42" rx="4.6" ry="3.4" fill="#86d063" stroke="#256b2a" stroke-width="1"></ellipse>
    <ellipse cx="85" cy="41.5" rx="1.1" ry="1.5" fill="#234e1f"></ellipse>
    <g fill="#f6fff0"><path d="M40,51 l3,6 l3,-6 Z"></path><path d="M51,51 l3.2,7 l3.2,-7 Z"></path><path d="M62,50.5 l2.8,6 l2.8,-6 Z"></path><path d="M72,49.5 l2.4,5 l2.4,-5 Z"></path><path d="M34,51 l3.4,8 l3,-8 Z"></path></g>
    <g fill="#3f9438"><circle cx="56" cy="36" r="1.7"></circle><circle cx="64" cy="37" r="1.5"></circle><circle cx="72" cy="39" r="1.3"></circle></g>
    <path d="M26,28 Q31,18 38,24 Q40,26 38,30 Z" fill="#7ec85a" stroke="#256b2a" stroke-width="1.2"></path>
    <circle cx="31" cy="27" r="7.2" fill="#f6fff0" stroke="#256b2a" stroke-width="1.2"></circle>
    <circle cx="32" cy="28" r="3.4" fill="#1c2a16"></circle><circle cx="33.3" cy="26.6" r="1.2" fill="#fff"></circle>
    <path d="M24,21 Q31,16 39,21" fill="none" stroke="#256b2a" stroke-width="2" stroke-linecap="round"></path>
    </g>
  </g></g>
  <g transform="translate(50,49) scale(2.25)">
  <path d="M0,-13 L11,-6.5 L11,6.5 L0,13 L-11,6.5 L-11,-6.5 Z" fill="#0b1a30" stroke="url(#cr3gold)" stroke-width="1.5" stroke-linejoin="round"></path>
  <path d="M0,-10 L8.4,-5 L8.4,5 L0,10 L-8.4,5 L-8.4,-5 Z" fill="none" stroke="url(#cr3gold)" stroke-width="0.5" opacity="0.55"></path>
  <g transform="translate(0,-2.4)" fill="url(#cr3gold)">
    <path d="M-3.4,-3.6 C-5.6,-3.6 -5.6,-0.4 -3.4,-0.4 L-3.4,-1.4 C-4.6,-1.4 -4.6,-2.6 -3.4,-2.6 Z"></path>
    <path d="M3.4,-3.6 C5.6,-3.6 5.6,-0.4 3.4,-0.4 L3.4,-1.4 C4.6,-1.4 4.6,-2.6 3.4,-2.6 Z"></path>
    <path d="M-3.6,-4 L3.6,-4 L3.1,-1.4 Q3.1,0.6 0,1.5 Q-3.1,0.6 -3.1,-1.4 Z"></path>
    <path d="M-0.9,1.5 L0.9,1.5 L0.7,3 L-0.7,3 Z"></path>
    <path d="M-2.6,4 L2.6,4 L2,3 L-2,3 Z"></path>
  </g>
  <text x="0" y="7" text-anchor="middle" font-family="Saira Condensed, sans-serif" font-weight="800" font-size="6.6" letter-spacing="0" fill="url(#cr3gold)">26</text></g></g></svg>